<mxfile host="app.diagrams.net" modified="2022-04-24T04:48:18.951Z" agent="5.0 (Windows NT 10.0; Win64; x64) AppleWebKit/537.36 (KHTML, like Gecko) Chrome/100.0.4896.60 Safari/537.36" etag="ZeQU95fChutS8Ll7yFiz" version="17.4.5" type="github">
  <diagram id="5gOkCH1_vrZO8kRT5rNJ" name="第 1 页">
    <mxGraphModel dx="1052" dy="1698" grid="1" gridSize="10" guides="1" tooltips="1" connect="1" arrows="1" fold="1" page="1" pageScale="1" pageWidth="827" pageHeight="1169" math="0" shadow="0">
      <root>
        <mxCell id="0" />
        <mxCell id="1" parent="0" />
        <mxCell id="nTik9bspRSJ3n6U7tSx7-1" value="" style="group" vertex="1" connectable="0" parent="1">
          <mxGeometry x="229" y="-25" width="769" height="579" as="geometry" />
        </mxCell>
        <mxCell id="nTik9bspRSJ3n6U7tSx7-2" value="" style="group" vertex="1" connectable="0" parent="nTik9bspRSJ3n6U7tSx7-1">
          <mxGeometry x="209" y="122" width="130" height="440" as="geometry" />
        </mxCell>
        <mxCell id="nTik9bspRSJ3n6U7tSx7-3" value="Conv(512,256,1,1)" style="rounded=0;whiteSpace=wrap;html=1;fillColor=#dae8fc;strokeColor=#6c8ebf;" vertex="1" parent="nTik9bspRSJ3n6U7tSx7-2">
          <mxGeometry y="420" width="130" height="20" as="geometry" />
        </mxCell>
        <mxCell id="nTik9bspRSJ3n6U7tSx7-4" value="Upsample" style="rounded=0;whiteSpace=wrap;html=1;fillColor=#f8cecc;strokeColor=#b85450;" vertex="1" parent="nTik9bspRSJ3n6U7tSx7-2">
          <mxGeometry y="350" width="130" height="20" as="geometry" />
        </mxCell>
        <mxCell id="nTik9bspRSJ3n6U7tSx7-5" style="edgeStyle=orthogonalEdgeStyle;rounded=0;orthogonalLoop=1;jettySize=auto;html=1;exitX=0.5;exitY=0;exitDx=0;exitDy=0;entryX=0.5;entryY=1;entryDx=0;entryDy=0;fontSize=11;" edge="1" parent="nTik9bspRSJ3n6U7tSx7-2" source="nTik9bspRSJ3n6U7tSx7-4" target="nTik9bspRSJ3n6U7tSx7-6">
          <mxGeometry relative="1" as="geometry" />
        </mxCell>
        <mxCell id="nTik9bspRSJ3n6U7tSx7-6" value="Concat" style="rounded=0;whiteSpace=wrap;html=1;fillColor=#d5e8d4;strokeColor=#82b366;" vertex="1" parent="nTik9bspRSJ3n6U7tSx7-2">
          <mxGeometry y="281" width="130" height="20" as="geometry" />
        </mxCell>
        <mxCell id="nTik9bspRSJ3n6U7tSx7-7" value="C3(512,256)*1" style="rounded=0;whiteSpace=wrap;html=1;fillColor=#ffe6cc;strokeColor=#d79b00;" vertex="1" parent="nTik9bspRSJ3n6U7tSx7-2">
          <mxGeometry y="210" width="130" height="20" as="geometry" />
        </mxCell>
        <mxCell id="nTik9bspRSJ3n6U7tSx7-8" style="edgeStyle=orthogonalEdgeStyle;rounded=0;orthogonalLoop=1;jettySize=auto;html=1;fontSize=11;entryX=0.5;entryY=1;entryDx=0;entryDy=0;" edge="1" parent="nTik9bspRSJ3n6U7tSx7-2" source="nTik9bspRSJ3n6U7tSx7-7" target="nTik9bspRSJ3n6U7tSx7-9">
          <mxGeometry relative="1" as="geometry" />
        </mxCell>
        <mxCell id="nTik9bspRSJ3n6U7tSx7-9" value="Conv(256,128,1,1)" style="rounded=0;whiteSpace=wrap;html=1;fillColor=#dae8fc;strokeColor=#6c8ebf;" vertex="1" parent="nTik9bspRSJ3n6U7tSx7-2">
          <mxGeometry y="141" width="130" height="20" as="geometry" />
        </mxCell>
        <mxCell id="nTik9bspRSJ3n6U7tSx7-10" style="edgeStyle=orthogonalEdgeStyle;rounded=0;orthogonalLoop=1;jettySize=auto;html=1;exitX=0.5;exitY=0;exitDx=0;exitDy=0;entryX=0.5;entryY=1;entryDx=0;entryDy=0;fontSize=11;" edge="1" parent="nTik9bspRSJ3n6U7tSx7-2" source="nTik9bspRSJ3n6U7tSx7-9" target="nTik9bspRSJ3n6U7tSx7-11">
          <mxGeometry relative="1" as="geometry" />
        </mxCell>
        <mxCell id="nTik9bspRSJ3n6U7tSx7-11" value="Upsample" style="rounded=0;whiteSpace=wrap;html=1;fillColor=#f8cecc;strokeColor=#b85450;" vertex="1" parent="nTik9bspRSJ3n6U7tSx7-2">
          <mxGeometry y="70" width="130" height="20" as="geometry" />
        </mxCell>
        <mxCell id="nTik9bspRSJ3n6U7tSx7-12" style="edgeStyle=orthogonalEdgeStyle;rounded=0;orthogonalLoop=1;jettySize=auto;html=1;exitX=0.5;exitY=0;exitDx=0;exitDy=0;entryX=0.5;entryY=1;entryDx=0;entryDy=0;fontSize=11;" edge="1" parent="nTik9bspRSJ3n6U7tSx7-2" source="nTik9bspRSJ3n6U7tSx7-11" target="nTik9bspRSJ3n6U7tSx7-13">
          <mxGeometry relative="1" as="geometry" />
        </mxCell>
        <mxCell id="nTik9bspRSJ3n6U7tSx7-13" value="Concat" style="rounded=0;whiteSpace=wrap;html=1;fillColor=#d5e8d4;strokeColor=#82b366;" vertex="1" parent="nTik9bspRSJ3n6U7tSx7-2">
          <mxGeometry width="130" height="20" as="geometry" />
        </mxCell>
        <mxCell id="nTik9bspRSJ3n6U7tSx7-14" value="" style="group" vertex="1" connectable="0" parent="nTik9bspRSJ3n6U7tSx7-1">
          <mxGeometry x="400" y="122" width="130" height="440" as="geometry" />
        </mxCell>
        <mxCell id="nTik9bspRSJ3n6U7tSx7-15" value="C3(256,128)*1" style="rounded=0;whiteSpace=wrap;html=1;fillColor=#ffe6cc;strokeColor=#d79b00;" vertex="1" parent="nTik9bspRSJ3n6U7tSx7-14">
          <mxGeometry width="130" height="20" as="geometry" />
        </mxCell>
        <mxCell id="nTik9bspRSJ3n6U7tSx7-16" style="edgeStyle=orthogonalEdgeStyle;rounded=0;orthogonalLoop=1;jettySize=auto;html=1;exitX=0.5;exitY=1;exitDx=0;exitDy=0;entryX=0.5;entryY=0;entryDx=0;entryDy=0;fontSize=11;" edge="1" parent="nTik9bspRSJ3n6U7tSx7-14" source="nTik9bspRSJ3n6U7tSx7-17" target="nTik9bspRSJ3n6U7tSx7-20">
          <mxGeometry relative="1" as="geometry" />
        </mxCell>
        <mxCell id="nTik9bspRSJ3n6U7tSx7-17" value="Conv(128,128,3,2)" style="rounded=0;whiteSpace=wrap;html=1;fillColor=#dae8fc;strokeColor=#6c8ebf;" vertex="1" parent="nTik9bspRSJ3n6U7tSx7-14">
          <mxGeometry y="70" width="130" height="20" as="geometry" />
        </mxCell>
        <mxCell id="nTik9bspRSJ3n6U7tSx7-18" style="edgeStyle=orthogonalEdgeStyle;rounded=0;orthogonalLoop=1;jettySize=auto;html=1;exitX=0.5;exitY=1;exitDx=0;exitDy=0;entryX=0.5;entryY=0;entryDx=0;entryDy=0;fontSize=11;" edge="1" parent="nTik9bspRSJ3n6U7tSx7-14" source="nTik9bspRSJ3n6U7tSx7-15" target="nTik9bspRSJ3n6U7tSx7-17">
          <mxGeometry relative="1" as="geometry" />
        </mxCell>
        <mxCell id="nTik9bspRSJ3n6U7tSx7-19" style="edgeStyle=orthogonalEdgeStyle;rounded=0;orthogonalLoop=1;jettySize=auto;html=1;exitX=0.5;exitY=1;exitDx=0;exitDy=0;entryX=0.5;entryY=0;entryDx=0;entryDy=0;fontSize=11;" edge="1" parent="nTik9bspRSJ3n6U7tSx7-14" source="nTik9bspRSJ3n6U7tSx7-20" target="nTik9bspRSJ3n6U7tSx7-21">
          <mxGeometry relative="1" as="geometry" />
        </mxCell>
        <mxCell id="nTik9bspRSJ3n6U7tSx7-20" value="Concat" style="rounded=0;whiteSpace=wrap;html=1;fillColor=#d5e8d4;strokeColor=#82b366;" vertex="1" parent="nTik9bspRSJ3n6U7tSx7-14">
          <mxGeometry y="140" width="130" height="20" as="geometry" />
        </mxCell>
        <mxCell id="nTik9bspRSJ3n6U7tSx7-21" value="C3(256,256)*1" style="rounded=0;whiteSpace=wrap;html=1;fillColor=#ffe6cc;strokeColor=#d79b00;" vertex="1" parent="nTik9bspRSJ3n6U7tSx7-14">
          <mxGeometry y="210" width="130" height="20" as="geometry" />
        </mxCell>
        <mxCell id="nTik9bspRSJ3n6U7tSx7-22" style="edgeStyle=orthogonalEdgeStyle;rounded=0;orthogonalLoop=1;jettySize=auto;html=1;exitX=0.5;exitY=1;exitDx=0;exitDy=0;entryX=0.5;entryY=0;entryDx=0;entryDy=0;fontSize=11;" edge="1" parent="nTik9bspRSJ3n6U7tSx7-14" source="nTik9bspRSJ3n6U7tSx7-23" target="nTik9bspRSJ3n6U7tSx7-25">
          <mxGeometry relative="1" as="geometry" />
        </mxCell>
        <mxCell id="nTik9bspRSJ3n6U7tSx7-23" value="Conv(256,256,3,2)" style="rounded=0;whiteSpace=wrap;html=1;fillColor=#dae8fc;strokeColor=#6c8ebf;" vertex="1" parent="nTik9bspRSJ3n6U7tSx7-14">
          <mxGeometry y="280" width="130" height="20" as="geometry" />
        </mxCell>
        <mxCell id="nTik9bspRSJ3n6U7tSx7-24" style="edgeStyle=orthogonalEdgeStyle;rounded=0;orthogonalLoop=1;jettySize=auto;html=1;exitX=0.5;exitY=1;exitDx=0;exitDy=0;entryX=0.5;entryY=0;entryDx=0;entryDy=0;fontSize=11;" edge="1" parent="nTik9bspRSJ3n6U7tSx7-14" source="nTik9bspRSJ3n6U7tSx7-21" target="nTik9bspRSJ3n6U7tSx7-23">
          <mxGeometry relative="1" as="geometry" />
        </mxCell>
        <mxCell id="nTik9bspRSJ3n6U7tSx7-25" value="Concat" style="rounded=0;whiteSpace=wrap;html=1;fillColor=#d5e8d4;strokeColor=#82b366;" vertex="1" parent="nTik9bspRSJ3n6U7tSx7-14">
          <mxGeometry y="350" width="130" height="20" as="geometry" />
        </mxCell>
        <mxCell id="nTik9bspRSJ3n6U7tSx7-26" value="C3(512,512)*1" style="rounded=0;whiteSpace=wrap;html=1;fillColor=#ffe6cc;strokeColor=#d79b00;" vertex="1" parent="nTik9bspRSJ3n6U7tSx7-14">
          <mxGeometry y="420" width="130" height="20" as="geometry" />
        </mxCell>
        <mxCell id="nTik9bspRSJ3n6U7tSx7-27" style="edgeStyle=orthogonalEdgeStyle;rounded=0;orthogonalLoop=1;jettySize=auto;html=1;exitX=0.5;exitY=1;exitDx=0;exitDy=0;fontSize=11;entryX=0.5;entryY=1;entryDx=0;entryDy=0;" edge="1" parent="nTik9bspRSJ3n6U7tSx7-1" target="nTik9bspRSJ3n6U7tSx7-7">
          <mxGeometry relative="1" as="geometry">
            <mxPoint x="274.14285714285734" y="403" as="sourcePoint" />
          </mxGeometry>
        </mxCell>
        <mxCell id="nTik9bspRSJ3n6U7tSx7-28" style="edgeStyle=orthogonalEdgeStyle;rounded=0;orthogonalLoop=1;jettySize=auto;html=1;exitX=0.5;exitY=1;exitDx=0;exitDy=0;fontSize=11;entryX=0.5;entryY=1;entryDx=0;entryDy=0;" edge="1" parent="nTik9bspRSJ3n6U7tSx7-1" target="nTik9bspRSJ3n6U7tSx7-4">
          <mxGeometry relative="1" as="geometry">
            <mxPoint x="274.14285714285734" y="543" as="sourcePoint" />
          </mxGeometry>
        </mxCell>
        <mxCell id="nTik9bspRSJ3n6U7tSx7-29" style="edgeStyle=orthogonalEdgeStyle;rounded=0;orthogonalLoop=1;jettySize=auto;html=1;exitX=0.5;exitY=1;exitDx=0;exitDy=0;fontSize=11;" edge="1" parent="nTik9bspRSJ3n6U7tSx7-1" source="nTik9bspRSJ3n6U7tSx7-25">
          <mxGeometry relative="1" as="geometry">
            <mxPoint x="465.57142857142867" y="543" as="targetPoint" />
          </mxGeometry>
        </mxCell>
        <mxCell id="nTik9bspRSJ3n6U7tSx7-30" value="Backbone" style="text;html=1;strokeColor=none;fillColor=none;align=center;verticalAlign=middle;whiteSpace=wrap;rounded=0;fontSize=11;strokeWidth=2;fontStyle=1;flipV=1;" vertex="1" parent="nTik9bspRSJ3n6U7tSx7-1">
          <mxGeometry x="35" y="19" width="60" height="30" as="geometry" />
        </mxCell>
        <mxCell id="nTik9bspRSJ3n6U7tSx7-31" value="Head" style="text;html=1;strokeColor=none;fillColor=none;align=center;verticalAlign=middle;whiteSpace=wrap;rounded=0;fontSize=11;strokeWidth=2;fontStyle=1;flipV=1;" vertex="1" parent="nTik9bspRSJ3n6U7tSx7-1">
          <mxGeometry x="340" y="19" width="60" height="30" as="geometry" />
        </mxCell>
        <mxCell id="nTik9bspRSJ3n6U7tSx7-32" value="Output" style="text;html=1;strokeColor=none;fillColor=none;align=center;verticalAlign=middle;whiteSpace=wrap;rounded=0;fontSize=11;strokeWidth=2;fontStyle=1;flipV=1;" vertex="1" parent="nTik9bspRSJ3n6U7tSx7-1">
          <mxGeometry x="644.5" y="19" width="60" height="30" as="geometry" />
        </mxCell>
        <mxCell id="nTik9bspRSJ3n6U7tSx7-33" style="edgeStyle=orthogonalEdgeStyle;rounded=0;orthogonalLoop=1;jettySize=auto;html=1;fontSize=11;" edge="1" parent="nTik9bspRSJ3n6U7tSx7-1">
          <mxGeometry relative="1" as="geometry">
            <mxPoint x="274" y="169" as="targetPoint" />
            <mxPoint x="130" y="319" as="sourcePoint" />
            <Array as="points">
              <mxPoint x="170" y="319" />
              <mxPoint x="170" y="169" />
            </Array>
          </mxGeometry>
        </mxCell>
        <mxCell id="nTik9bspRSJ3n6U7tSx7-34" style="edgeStyle=orthogonalEdgeStyle;rounded=0;orthogonalLoop=1;jettySize=auto;html=1;fontSize=11;" edge="1" parent="nTik9bspRSJ3n6U7tSx7-1">
          <mxGeometry relative="1" as="geometry">
            <mxPoint x="274" y="449" as="targetPoint" />
            <mxPoint x="130" y="419" as="sourcePoint" />
            <Array as="points">
              <mxPoint x="164" y="419" />
              <mxPoint x="164" y="449" />
            </Array>
          </mxGeometry>
        </mxCell>
        <mxCell id="nTik9bspRSJ3n6U7tSx7-35" style="edgeStyle=orthogonalEdgeStyle;rounded=0;orthogonalLoop=1;jettySize=auto;html=1;exitX=0.5;exitY=0;exitDx=0;exitDy=0;entryX=0.5;entryY=0;entryDx=0;entryDy=0;fontSize=11;" edge="1" parent="nTik9bspRSJ3n6U7tSx7-1" source="nTik9bspRSJ3n6U7tSx7-13" target="nTik9bspRSJ3n6U7tSx7-15">
          <mxGeometry relative="1" as="geometry" />
        </mxCell>
        <mxCell id="nTik9bspRSJ3n6U7tSx7-36" style="edgeStyle=orthogonalEdgeStyle;rounded=0;orthogonalLoop=1;jettySize=auto;html=1;fontSize=11;" edge="1" parent="nTik9bspRSJ3n6U7tSx7-1">
          <mxGeometry relative="1" as="geometry">
            <mxPoint x="465" y="239" as="targetPoint" />
            <mxPoint x="340" y="273" as="sourcePoint" />
            <Array as="points">
              <mxPoint x="375" y="273" />
              <mxPoint x="375" y="239" />
            </Array>
          </mxGeometry>
        </mxCell>
        <mxCell id="nTik9bspRSJ3n6U7tSx7-37" style="edgeStyle=orthogonalEdgeStyle;rounded=0;orthogonalLoop=1;jettySize=auto;html=1;fontSize=11;" edge="1" parent="nTik9bspRSJ3n6U7tSx7-1">
          <mxGeometry relative="1" as="geometry">
            <mxPoint x="465" y="449" as="targetPoint" />
            <mxPoint x="340" y="552" as="sourcePoint" />
            <Array as="points">
              <mxPoint x="375" y="552" />
            </Array>
          </mxGeometry>
        </mxCell>
        <mxCell id="nTik9bspRSJ3n6U7tSx7-38" style="edgeStyle=orthogonalEdgeStyle;rounded=0;orthogonalLoop=1;jettySize=auto;html=1;exitX=1;exitY=0.5;exitDx=0;exitDy=0;entryX=0;entryY=0.5;entryDx=0;entryDy=0;fontSize=11;" edge="1" parent="nTik9bspRSJ3n6U7tSx7-1" source="nTik9bspRSJ3n6U7tSx7-26" target="nTik9bspRSJ3n6U7tSx7-66">
          <mxGeometry relative="1" as="geometry" />
        </mxCell>
        <mxCell id="nTik9bspRSJ3n6U7tSx7-39" style="edgeStyle=orthogonalEdgeStyle;rounded=0;orthogonalLoop=1;jettySize=auto;html=1;exitX=1;exitY=0.5;exitDx=0;exitDy=0;entryX=0;entryY=0.5;entryDx=0;entryDy=0;fontSize=11;" edge="1" parent="nTik9bspRSJ3n6U7tSx7-1" source="nTik9bspRSJ3n6U7tSx7-21" target="nTik9bspRSJ3n6U7tSx7-65">
          <mxGeometry relative="1" as="geometry" />
        </mxCell>
        <mxCell id="nTik9bspRSJ3n6U7tSx7-40" style="edgeStyle=orthogonalEdgeStyle;rounded=0;orthogonalLoop=1;jettySize=auto;html=1;exitX=1;exitY=0.5;exitDx=0;exitDy=0;entryX=0;entryY=0.5;entryDx=0;entryDy=0;fontSize=11;" edge="1" parent="nTik9bspRSJ3n6U7tSx7-1" source="nTik9bspRSJ3n6U7tSx7-15" target="nTik9bspRSJ3n6U7tSx7-64">
          <mxGeometry relative="1" as="geometry" />
        </mxCell>
        <mxCell id="nTik9bspRSJ3n6U7tSx7-41" value="Input(640,640,3)" style="rounded=0;whiteSpace=wrap;html=1;" vertex="1" parent="nTik9bspRSJ3n6U7tSx7-1">
          <mxGeometry y="59" width="130" height="20" as="geometry" />
        </mxCell>
        <mxCell id="nTik9bspRSJ3n6U7tSx7-42" value="Focus(3,32,3)" style="rounded=0;whiteSpace=wrap;html=1;fillColor=#f5f5f5;strokeColor=#666666;fontColor=#333333;" vertex="1" parent="nTik9bspRSJ3n6U7tSx7-1">
          <mxGeometry y="109" width="130" height="20" as="geometry" />
        </mxCell>
        <mxCell id="nTik9bspRSJ3n6U7tSx7-43" style="edgeStyle=orthogonalEdgeStyle;rounded=0;orthogonalLoop=1;jettySize=auto;html=1;exitX=0.5;exitY=1;exitDx=0;exitDy=0;entryX=0.5;entryY=0;entryDx=0;entryDy=0;fontSize=11;" edge="1" parent="nTik9bspRSJ3n6U7tSx7-1" source="nTik9bspRSJ3n6U7tSx7-41" target="nTik9bspRSJ3n6U7tSx7-42">
          <mxGeometry relative="1" as="geometry" />
        </mxCell>
        <mxCell id="nTik9bspRSJ3n6U7tSx7-44" value="Conv(32,64,3,2)" style="rounded=0;whiteSpace=wrap;html=1;fillColor=#dae8fc;strokeColor=#6c8ebf;" vertex="1" parent="nTik9bspRSJ3n6U7tSx7-1">
          <mxGeometry y="159" width="130" height="20" as="geometry" />
        </mxCell>
        <mxCell id="nTik9bspRSJ3n6U7tSx7-45" style="edgeStyle=orthogonalEdgeStyle;rounded=0;orthogonalLoop=1;jettySize=auto;html=1;exitX=0.5;exitY=1;exitDx=0;exitDy=0;fontSize=11;" edge="1" parent="nTik9bspRSJ3n6U7tSx7-1" source="nTik9bspRSJ3n6U7tSx7-42" target="nTik9bspRSJ3n6U7tSx7-44">
          <mxGeometry relative="1" as="geometry" />
        </mxCell>
        <mxCell id="nTik9bspRSJ3n6U7tSx7-46" value="C3(64,64)*1" style="rounded=0;whiteSpace=wrap;html=1;fillColor=#ffe6cc;strokeColor=#d79b00;" vertex="1" parent="nTik9bspRSJ3n6U7tSx7-1">
          <mxGeometry y="209" width="130" height="20" as="geometry" />
        </mxCell>
        <mxCell id="nTik9bspRSJ3n6U7tSx7-47" style="edgeStyle=orthogonalEdgeStyle;rounded=0;orthogonalLoop=1;jettySize=auto;html=1;exitX=0.5;exitY=1;exitDx=0;exitDy=0;entryX=0.5;entryY=0;entryDx=0;entryDy=0;fontSize=11;" edge="1" parent="nTik9bspRSJ3n6U7tSx7-1" source="nTik9bspRSJ3n6U7tSx7-44" target="nTik9bspRSJ3n6U7tSx7-46">
          <mxGeometry relative="1" as="geometry" />
        </mxCell>
        <mxCell id="nTik9bspRSJ3n6U7tSx7-48" value="Conv(64,128,3,2)" style="rounded=0;whiteSpace=wrap;html=1;fillColor=#dae8fc;strokeColor=#6c8ebf;" vertex="1" parent="nTik9bspRSJ3n6U7tSx7-1">
          <mxGeometry y="259" width="130" height="20" as="geometry" />
        </mxCell>
        <mxCell id="nTik9bspRSJ3n6U7tSx7-49" style="edgeStyle=orthogonalEdgeStyle;rounded=0;orthogonalLoop=1;jettySize=auto;html=1;exitX=0.5;exitY=1;exitDx=0;exitDy=0;entryX=0.5;entryY=0;entryDx=0;entryDy=0;fontSize=11;" edge="1" parent="nTik9bspRSJ3n6U7tSx7-1" source="nTik9bspRSJ3n6U7tSx7-46" target="nTik9bspRSJ3n6U7tSx7-48">
          <mxGeometry relative="1" as="geometry" />
        </mxCell>
        <mxCell id="nTik9bspRSJ3n6U7tSx7-50" value="C3(128,128)*3" style="rounded=0;whiteSpace=wrap;html=1;fillColor=#ffe6cc;strokeColor=#d79b00;" vertex="1" parent="nTik9bspRSJ3n6U7tSx7-1">
          <mxGeometry y="309" width="130" height="20" as="geometry" />
        </mxCell>
        <mxCell id="nTik9bspRSJ3n6U7tSx7-51" style="edgeStyle=orthogonalEdgeStyle;rounded=0;orthogonalLoop=1;jettySize=auto;html=1;exitX=0.5;exitY=1;exitDx=0;exitDy=0;entryX=0.5;entryY=0;entryDx=0;entryDy=0;fontSize=11;" edge="1" parent="nTik9bspRSJ3n6U7tSx7-1" source="nTik9bspRSJ3n6U7tSx7-48" target="nTik9bspRSJ3n6U7tSx7-50">
          <mxGeometry relative="1" as="geometry" />
        </mxCell>
        <mxCell id="nTik9bspRSJ3n6U7tSx7-52" value="Conv(128,256,3,2)" style="rounded=0;whiteSpace=wrap;html=1;fillColor=#dae8fc;strokeColor=#6c8ebf;" vertex="1" parent="nTik9bspRSJ3n6U7tSx7-1">
          <mxGeometry y="359" width="130" height="20" as="geometry" />
        </mxCell>
        <mxCell id="nTik9bspRSJ3n6U7tSx7-53" style="edgeStyle=orthogonalEdgeStyle;rounded=0;orthogonalLoop=1;jettySize=auto;html=1;exitX=0.5;exitY=1;exitDx=0;exitDy=0;entryX=0.5;entryY=0;entryDx=0;entryDy=0;fontSize=11;" edge="1" parent="nTik9bspRSJ3n6U7tSx7-1" source="nTik9bspRSJ3n6U7tSx7-50" target="nTik9bspRSJ3n6U7tSx7-52">
          <mxGeometry relative="1" as="geometry" />
        </mxCell>
        <mxCell id="nTik9bspRSJ3n6U7tSx7-54" value="" style="edgeStyle=orthogonalEdgeStyle;rounded=0;orthogonalLoop=1;jettySize=auto;html=1;" edge="1" parent="nTik9bspRSJ3n6U7tSx7-1" source="nTik9bspRSJ3n6U7tSx7-55" target="nTik9bspRSJ3n6U7tSx7-59">
          <mxGeometry relative="1" as="geometry" />
        </mxCell>
        <mxCell id="nTik9bspRSJ3n6U7tSx7-55" value="C3(256,256)*3" style="rounded=0;whiteSpace=wrap;html=1;fillColor=#ffe6cc;strokeColor=#d79b00;" vertex="1" parent="nTik9bspRSJ3n6U7tSx7-1">
          <mxGeometry y="409" width="130" height="20" as="geometry" />
        </mxCell>
        <mxCell id="nTik9bspRSJ3n6U7tSx7-56" style="edgeStyle=orthogonalEdgeStyle;rounded=0;orthogonalLoop=1;jettySize=auto;html=1;exitX=0.5;exitY=1;exitDx=0;exitDy=0;entryX=0.5;entryY=0;entryDx=0;entryDy=0;fontSize=11;" edge="1" parent="nTik9bspRSJ3n6U7tSx7-1" source="nTik9bspRSJ3n6U7tSx7-52" target="nTik9bspRSJ3n6U7tSx7-55">
          <mxGeometry relative="1" as="geometry" />
        </mxCell>
        <mxCell id="nTik9bspRSJ3n6U7tSx7-57" value="Conv(256,512,3,2)" style="rounded=0;whiteSpace=wrap;html=1;fillColor=#dae8fc;strokeColor=#6c8ebf;" vertex="1" parent="nTik9bspRSJ3n6U7tSx7-1">
          <mxGeometry y="459" width="130" height="20" as="geometry" />
        </mxCell>
        <mxCell id="nTik9bspRSJ3n6U7tSx7-58" style="edgeStyle=orthogonalEdgeStyle;rounded=0;orthogonalLoop=1;jettySize=auto;html=1;exitX=0.5;exitY=1;exitDx=0;exitDy=0;entryX=0.5;entryY=0;entryDx=0;entryDy=0;fontSize=11;" edge="1" parent="nTik9bspRSJ3n6U7tSx7-1" source="nTik9bspRSJ3n6U7tSx7-55" target="nTik9bspRSJ3n6U7tSx7-57">
          <mxGeometry relative="1" as="geometry" />
        </mxCell>
        <mxCell id="nTik9bspRSJ3n6U7tSx7-59" value="&lt;font style=&quot;font-size: 11px&quot;&gt;SPP(512,512,[5,9,13])&lt;/font&gt;" style="rounded=0;whiteSpace=wrap;html=1;fillColor=#e1d5e7;strokeColor=#9673a6;" vertex="1" parent="nTik9bspRSJ3n6U7tSx7-1">
          <mxGeometry y="510" width="135" height="20" as="geometry" />
        </mxCell>
        <mxCell id="nTik9bspRSJ3n6U7tSx7-60" style="edgeStyle=orthogonalEdgeStyle;rounded=0;orthogonalLoop=1;jettySize=auto;html=1;exitX=0.5;exitY=1;exitDx=0;exitDy=0;entryX=0.5;entryY=0;entryDx=0;entryDy=0;fontSize=11;" edge="1" parent="nTik9bspRSJ3n6U7tSx7-1" source="nTik9bspRSJ3n6U7tSx7-57" target="nTik9bspRSJ3n6U7tSx7-59">
          <mxGeometry relative="1" as="geometry" />
        </mxCell>
        <mxCell id="nTik9bspRSJ3n6U7tSx7-70" style="edgeStyle=orthogonalEdgeStyle;rounded=0;orthogonalLoop=1;jettySize=auto;html=1;exitX=0.5;exitY=1;exitDx=0;exitDy=0;entryX=0.5;entryY=1;entryDx=0;entryDy=0;" edge="1" parent="nTik9bspRSJ3n6U7tSx7-1" source="nTik9bspRSJ3n6U7tSx7-61" target="nTik9bspRSJ3n6U7tSx7-3">
          <mxGeometry relative="1" as="geometry" />
        </mxCell>
        <mxCell id="nTik9bspRSJ3n6U7tSx7-61" value="C3(512,512)*1" style="rounded=0;whiteSpace=wrap;html=1;fillColor=#ffe6cc;strokeColor=#d79b00;" vertex="1" parent="nTik9bspRSJ3n6U7tSx7-1">
          <mxGeometry y="559" width="130" height="20" as="geometry" />
        </mxCell>
        <mxCell id="nTik9bspRSJ3n6U7tSx7-62" style="edgeStyle=orthogonalEdgeStyle;rounded=0;orthogonalLoop=1;jettySize=auto;html=1;exitX=0.5;exitY=1;exitDx=0;exitDy=0;entryX=0.5;entryY=0;entryDx=0;entryDy=0;fontSize=11;" edge="1" parent="nTik9bspRSJ3n6U7tSx7-1" source="nTik9bspRSJ3n6U7tSx7-59" target="nTik9bspRSJ3n6U7tSx7-61">
          <mxGeometry relative="1" as="geometry" />
        </mxCell>
        <mxCell id="nTik9bspRSJ3n6U7tSx7-63" value="" style="group" vertex="1" connectable="0" parent="nTik9bspRSJ3n6U7tSx7-1">
          <mxGeometry x="609" y="192" width="131" height="300" as="geometry" />
        </mxCell>
        <mxCell id="nTik9bspRSJ3n6U7tSx7-64" value="Detect" style="rounded=0;whiteSpace=wrap;html=1;fillColor=#fff2cc;strokeColor=#d6b656;container=0;" vertex="1" parent="nTik9bspRSJ3n6U7tSx7-63">
          <mxGeometry width="131" height="20" as="geometry" />
        </mxCell>
        <mxCell id="nTik9bspRSJ3n6U7tSx7-65" value="Detect" style="rounded=0;whiteSpace=wrap;html=1;fillColor=#fff2cc;strokeColor=#d6b656;container=0;" vertex="1" parent="nTik9bspRSJ3n6U7tSx7-63">
          <mxGeometry y="140" width="131" height="20" as="geometry" />
        </mxCell>
        <mxCell id="nTik9bspRSJ3n6U7tSx7-66" value="Detect" style="rounded=0;whiteSpace=wrap;html=1;fillColor=#fff2cc;strokeColor=#d6b656;container=0;" vertex="1" parent="nTik9bspRSJ3n6U7tSx7-63">
          <mxGeometry y="280" width="131" height="20" as="geometry" />
        </mxCell>
      </root>
    </mxGraphModel>
  </diagram>
</mxfile>
